<?xml version="1.0" encoding="UTF-8"?>
<svg id="Layer_1" xmlns="http://www.w3.org/2000/svg" version="1.1" viewBox="0 0 1500 1101">
  <!-- Generator: Adobe Illustrator 29.8.1, SVG Export Plug-In . SVG Version: 2.1.1 Build 2)  -->
  <g display="none">
    <path d="M401.21,546.98c0-26.76,4.07-46.46,12.2-59.09,8.14-12.63,20.77-19.06,37.9-19.06s29.76,6.21,37.9,18.84c8.14,12.63,12.2,32.33,12.2,59.09s-4.07,46.46-12.2,59.09c-8.14,12.63-20.77,18.42-37.9,18.42s-29.76-6-37.9-18.63c-8.14-12.63-12.2-32.33-12.2-59.09v.43ZM435.47,567.75c.64,5.78,1.5,10.49,2.78,14.13,1.28,3.64,3,6.42,5.14,8.14,2.14,1.71,4.71,2.57,7.92,2.57s5.78-.86,7.92-2.57c2.14-1.71,3.85-4.49,5.14-8.14,1.28-3.64,2.14-8.35,2.78-14.13.64-5.78.86-12.85.86-21.2s-.21-15.42-.86-21.2c-.64-5.78-1.5-10.49-2.78-14.13-1.28-3.64-3-6.42-5.14-8.14s-4.71-2.57-7.92-2.57-5.78.86-7.92,2.57c-2.14,1.71-3.85,4.49-5.14,8.14-1.28,3.64-2.14,8.35-2.78,14.13-.64,5.78-.86,12.85-.86,21.2s.21,15.42.86,21.2Z" fill="#2563eb"/>
    <path d="M617.01,621.27h-37.04l-19.05-49.88h-7.49v49.67h-32.97v-149.87h44.75c6.21,0,12.2,1.29,17.99,3.64,5.78,2.35,10.92,5.78,15.2,10.28,4.28,4.5,7.71,9.85,10.28,16.06,2.57,6.21,3.86,13.28,3.86,20.98,0,9.63-1.93,17.99-6,25.05-4.07,7.06-9.21,12.63-15.63,16.7l26.12,57.38ZM553.21,503.09v38.97l10.92-.21c4.49,0,8.14-1.71,10.92-5.35,2.78-3.64,4.28-8.35,4.28-14.13s-1.5-10.71-4.5-14.13c-3-3.43-6.63-5.14-10.92-5.14h-10.71Z" fill="#2563eb"/>
    <path d="M713.13,471.62h30.62v150.73h-30.62v-49.03c0-5.78.21-11.35.64-16.7.43-5.35,1.07-10.06,1.71-14.13.64-4.07,1.07-7.49,1.5-10.06l.64-3.85h-.86l-.86,2.35c-.64,1.71-1.28,3.64-2.14,6s-1.71,5.14-2.78,8.14c-1.07,3-2.14,5.78-3.21,8.56l-12.42,31.69h-14.99l-12.42-31.69c-1.07-2.78-2.14-5.78-3.21-8.78-1.07-3-1.93-5.78-2.78-8.14-.86-2.35-1.5-4.49-2.14-6.21l-.86-2.57h-.86l.64,3.64c.43,2.57.86,5.78,1.5,9.85.64,4.07,1.28,8.78,1.71,14.13.43,5.35.64,10.92.64,16.7v49.24h-30.62v-149.65h30.62l18.62,45.39c1.29,3.21,2.36,6.42,3.21,9.63.85,3.21,1.5,6,1.93,8.57.43,2.57.86,4.49,1.07,5.99l.43,2.14h.43l.21-2.35c.21-1.5.43-3.43.86-6,.43-2.57,1.07-5.35,1.93-8.56s1.93-6.42,3.21-9.63l18.63-45.39Z" fill="#2563eb"/>
    <path d="M762.58,546.98c0-26.76,4.07-46.46,12.2-59.09,8.14-12.63,20.77-19.06,37.9-19.06s29.76,6.21,37.9,18.84c8.14,12.63,12.2,32.33,12.2,59.09s-4.07,46.46-12.2,59.09c-8.14,12.63-20.77,18.42-37.9,18.42s-29.76-6-37.9-18.63c-8.13-12.63-12.2-32.33-12.2-59.09v.43ZM796.83,567.75c.64,5.78,1.5,10.49,2.78,14.13,1.28,3.64,3,6.42,5.14,8.14,2.14,1.71,4.71,2.57,7.92,2.57s5.78-.86,7.92-2.57c2.14-1.71,3.85-4.49,5.14-8.14,1.29-3.64,2.14-8.35,2.78-14.13.64-5.78.86-12.85.86-21.2s-.21-15.42-.86-21.2c-.64-5.78-1.5-10.49-2.78-14.13-1.28-3.64-3-6.42-5.14-8.14-2.14-1.71-4.71-2.57-7.92-2.57s-5.78.86-7.92,2.57c-2.14,1.71-3.85,4.49-5.14,8.14-1.29,3.64-2.14,8.35-2.78,14.13-.64,5.78-.86,12.85-.86,21.2s.21,15.42.86,21.2Z" fill="#2563eb"/>
    <path d="M928.71,573.1l.43.21c-.21,0-.86,1.93-2.14,5.99-1.29,4.07-3.21,9.21-6,15.42l-11.77,26.76h-38.11l38.97-78.79-34.68-71.08h36.4l11.99,29.33c.86,1.93,1.28,3.85,1.93,5.78.64,1.93,1.29,3.64,1.71,5.35.43,1.71.86,3,1.07,4.07l.43,1.5h.43l.43-1.5c.21-1.07.64-2.35,1.07-4.07.43-1.71,1.07-3.43,1.71-5.35.64-1.93,1.07-3.85,1.93-5.78l11.99-29.33h36.39l-34.68,71.08,38.97,78.79h-38.11l-11.77-26.76c-2.78-6.21-4.71-11.35-6-15.42-1.28-4.07-1.93-6.21-2.14-6.21h-.43Z" fill="#2563eb"/>
  </g>
  <path d="M610.34,452.66c.15.09.24.54.45.66l56.58,56.56,26.01-26.17,26.36,26.17,57.07-57.08.71-.52,96.07-.1,1.93.22-4.42,5.09c-5.67,5.87-11.53,12.35-16.86,18.12-8.93,9.67-17.77,19.31-26.8,28.85-7.74,0-15.54-.53-23.32-.51l12.84,11.49-.05.57-122.58,132.78c-1.59.08-1.91-.51-2.93-1.54-18.68-18.96-35.61-39.8-54.35-58.69-19.91-22.01-40.6-43.99-60.72-66-2.01-2.21-4.14-4.32-6.14-6.54-.38-.71.17-.57.51-.91,1.03-1,3.4-2.75,4.11-3.69.24-.32-.36-.54.86-.72l7.71-6.95c-3.02.37-6.07.13-9.11.19-.48.01-.93.21-1.42.22-4.49.1-8.95.08-13.4.09-2.69-2.58-5.05-5.47-7.58-8.18-.92-.99-1.83-1.97-2.75-2.97-6.09-6.57-11.83-12.62-17.89-19.19-6.13-6.65-12.21-13.38-18.4-20.03.06-1.45.57-1.6,1.91-1.7h93.1c.46.03,2.2.29,2.49.47Z"/>
</svg>