<?xml version="1.0" encoding="UTF-8"?>
<svg xmlns="http://www.w3.org/2000/svg" version="1.1" viewBox="0 0 1021.5 236.2">
  <!-- Generator: Adobe Illustrator 29.8.1, SVG Export Plug-In . SVG Version: 2.1.1 Build 2)  -->
  <g id="Layer_1">
    <rect width="1021.5" height="236.2" display="none"/>
  </g>
  <g id="Layer_2">
    <g>
      <g>
        <path d="M399.1,114.6c0-26.8,4.1-46.5,12.2-59.1,8.1-12.6,20.8-19.1,37.9-19.1s29.8,6.2,37.9,18.8c8.1,12.6,12.2,32.3,12.2,59.1s-4.1,46.5-12.2,59.1c-8.1,12.6-20.8,18.4-37.9,18.4s-29.8-6-37.9-18.6c-8.1-12.6-12.2-32.3-12.2-59.1v.4ZM433.4,135.3c.6,5.8,1.5,10.5,2.8,14.1,1.3,3.6,3,6.4,5.1,8.1,2.1,1.7,4.7,2.6,7.9,2.6s5.8-.9,7.9-2.6c2.1-1.7,3.9-4.5,5.1-8.1,1.3-3.6,2.1-8.3,2.8-14.1.6-5.8.9-12.8.9-21.2s-.2-15.4-.9-21.2c-.6-5.8-1.5-10.5-2.8-14.1-1.3-3.6-3-6.4-5.1-8.1s-4.7-2.6-7.9-2.6-5.8.9-7.9,2.6c-2.1,1.7-3.9,4.5-5.1,8.1-1.3,3.6-2.1,8.3-2.8,14.1-.6,5.8-.9,12.8-.9,21.2s.2,15.4.9,21.2Z" fill="#2563eb"/>
        <path d="M614.9,188.9h-37l-19.1-49.9h-7.5v49.7h-33V38.8h44.7c6.2,0,12.2,1.3,18,3.6,5.8,2.4,10.9,5.8,15.2,10.3,4.3,4.5,7.7,9.8,10.3,16.1,2.6,6.2,3.9,13.3,3.9,21s-1.9,18-6,25c-4.1,7.1-9.2,12.6-15.6,16.7l26.1,57.4ZM551.1,70.7v39l10.9-.2c4.5,0,8.1-1.7,10.9-5.4,2.8-3.6,4.3-8.3,4.3-14.1s-1.5-10.7-4.5-14.1c-3-3.4-6.6-5.1-10.9-5.1h-10.7Z" fill="#2563eb"/>
        <path d="M711,39.2h30.6v150.7h-30.6v-49c0-5.8.2-11.3.6-16.7.4-5.4,1.1-10.1,1.7-14.1.6-4.1,1.1-7.5,1.5-10.1l.6-3.9h-.9l-.9,2.4c-.6,1.7-1.3,3.6-2.1,6s-1.7,5.1-2.8,8.1c-1.1,3-2.1,5.8-3.2,8.6l-12.4,31.7h-15l-12.4-31.7c-1.1-2.8-2.1-5.8-3.2-8.8-1.1-3-1.9-5.8-2.8-8.1-.9-2.4-1.5-4.5-2.1-6.2l-.9-2.6h-.9l.6,3.6c.4,2.6.9,5.8,1.5,9.8.6,4.1,1.3,8.8,1.7,14.1.4,5.4.6,10.9.6,16.7v49.2h-30.6V39.4h30.6l18.6,45.4c1.3,3.2,2.4,6.4,3.2,9.6.9,3.2,1.5,6,1.9,8.6.4,2.6.9,4.5,1.1,6l.4,2.1h.4l.2-2.4c.2-1.5.4-3.4.9-6,.4-2.6,1.1-5.4,1.9-8.6.9-3.2,1.9-6.4,3.2-9.6l18.6-45.4Z" fill="#2563eb"/>
        <path d="M760.5,114.6c0-26.8,4.1-46.5,12.2-59.1,8.1-12.6,20.8-19.1,37.9-19.1s29.8,6.2,37.9,18.8c8.1,12.6,12.2,32.3,12.2,59.1s-4.1,46.5-12.2,59.1c-8.1,12.6-20.8,18.4-37.9,18.4s-29.8-6-37.9-18.6c-8.1-12.6-12.2-32.3-12.2-59.1v.4ZM794.7,135.3c.6,5.8,1.5,10.5,2.8,14.1,1.3,3.6,3,6.4,5.1,8.1,2.1,1.7,4.7,2.6,7.9,2.6s5.8-.9,7.9-2.6c2.1-1.7,3.9-4.5,5.1-8.1,1.3-3.6,2.1-8.3,2.8-14.1.6-5.8.9-12.8.9-21.2s-.2-15.4-.9-21.2c-.6-5.8-1.5-10.5-2.8-14.1-1.3-3.6-3-6.4-5.1-8.1-2.1-1.7-4.7-2.6-7.9-2.6s-5.8.9-7.9,2.6c-2.1,1.7-3.9,4.5-5.1,8.1-1.3,3.6-2.1,8.3-2.8,14.1-.6,5.8-.9,12.8-.9,21.2s.2,15.4.9,21.2Z" fill="#2563eb"/>
        <path d="M926.6,140.7l.4.2c-.2,0-.9,1.9-2.1,6-1.3,4.1-3.2,9.2-6,15.4l-11.8,26.8h-38.1l39-78.8-34.7-71.1h36.4l12,29.3c.9,1.9,1.3,3.9,1.9,5.8.6,1.9,1.3,3.6,1.7,5.4.4,1.7.9,3,1.1,4.1l.4,1.5h.4l.4-1.5c.2-1.1.6-2.4,1.1-4.1.4-1.7,1.1-3.4,1.7-5.4.6-1.9,1.1-3.9,1.9-5.8l12-29.3h36.4l-34.7,71.1,39,78.8h-38.1l-11.8-26.8c-2.8-6.2-4.7-11.3-6-15.4-1.3-4.1-1.9-6.2-2.1-6.2h-.4Z"/>
      </g>
      <path d="M133.9,20.3c.1,0,.2.5.5.7l56.6,56.6,26-26.2,26.4,26.2,57.1-57.1.7-.5h96.1c0-.1,1.9.1,1.9.1l-4.4,5.1c-5.7,5.9-11.5,12.3-16.9,18.1-8.9,9.7-17.8,19.3-26.8,28.9-7.7,0-15.5-.5-23.3-.5l12.8,11.5v.6c0,0-122.6,132.8-122.6,132.8-1.6,0-1.9-.5-2.9-1.5-18.7-19-35.6-39.8-54.3-58.7-19.9-22-40.6-44-60.7-66-2-2.2-4.1-4.3-6.1-6.5-.4-.7.2-.6.5-.9,1-1,3.4-2.7,4.1-3.7s-.4-.5.9-.7l7.7-7c-3,.4-6.1.1-9.1.2s-.9.2-1.4.2c-4.5,0-8.9,0-13.4,0-2.7-2.6-5-5.5-7.6-8.2s-1.8-2-2.8-3c-6.1-6.6-11.8-12.6-17.9-19.2-6.1-6.6-12.2-13.4-18.4-20,0-1.5.6-1.6,1.9-1.7h93.1c.5,0,2.2.3,2.5.5Z"/>
    </g>
  </g>
</svg>